HIERARCHY
ROOT newVegas:Hips
{
	OFFSET 0.000000 96.479958 0.000000
	CHANNELS 6 Xposition Yposition Zposition Xrotation Yrotation Zrotation
	JOINT newVegas:Pelvis
	{
		OFFSET 0.000000 0.000000 0.000000
		CHANNELS 3 Xrotation Yrotation Zrotation
		JOINT newVegas:LeftUpLeg
		{
			OFFSET 18.735201 -5.666702 -4.541200
			CHANNELS 3 Xrotation Yrotation Zrotation
			JOINT newVegas:LeftLeg
			{
				OFFSET -0.021200 -31.938179 0.493100
				CHANNELS 3 Xrotation Yrotation Zrotation
				JOINT newVegas:LeftFoot
				{
					OFFSET 0.021200 -31.938179 -4.336299
					CHANNELS 3 Xrotation Yrotation Zrotation
					JOINT newVegas:LeftToeBase
					{
						OFFSET 0.943001 -26.722000 15.023500
						CHANNELS 3 Xrotation Yrotation Zrotation
						End Site
						{
							OFFSET 0.000000 30.670183 0.000000
						}
					}
				}
				JOINT newVegas:Left_PantLeg
				{
					OFFSET 0.663870 -9.044666 -1.108900
					CHANNELS 3 Xrotation Yrotation Zrotation
					End Site
					{
						OFFSET 1.415995 20.635357 0.000000
					}
				}
			}
		}
		JOINT newVegas:RightUpLeg
		{
			OFFSET -18.735201 -5.666702 -4.541200
			CHANNELS 3 Xrotation Yrotation Zrotation
			JOINT newVegas:RightLeg
			{
				OFFSET 0.018946 -31.938133 0.493100
				CHANNELS 3 Xrotation Yrotation Zrotation
				JOINT newVegas:RightFoot
				{
					OFFSET -0.018946 -31.938126 -4.336299
					CHANNELS 3 Xrotation Yrotation Zrotation
					JOINT newVegas:RightToeBase
					{
						OFFSET -0.943001 -26.722004 15.023500
						CHANNELS 3 Xrotation Yrotation Zrotation
						End Site
						{
							OFFSET 0.000000 30.670187 0.000000
						}
					}
				}
				JOINT newVegas:Right_PantLeg
				{
					OFFSET -0.661674 -9.044716 -1.108900
					CHANNELS 3 Xrotation Yrotation Zrotation
					End Site
					{
						OFFSET -1.415958 20.635269 0.000000
					}
				}
			}
		}
	}
	JOINT newVegas:Spine
	{
		OFFSET 0.000000 10.199997 -0.299500
		CHANNELS 3 Xrotation Yrotation Zrotation
		JOINT newVegas:Spine1
		{
			OFFSET 0.000000 11.900002 -1.516600
			CHANNELS 3 Xrotation Yrotation Zrotation
			JOINT newVegas:Spine2
			{
				OFFSET 0.000000 13.600006 -2.842500
				CHANNELS 3 Xrotation Yrotation Zrotation
				JOINT newVegas:Neck
				{
					OFFSET 0.000000 9.624100 -2.890100
					CHANNELS 3 Xrotation Yrotation Zrotation
					JOINT newVegas:Head
					{
						OFFSET 0.000000 14.068802 -1.351900
						CHANNELS 3 Xrotation Yrotation Zrotation
						JOINT newVegas:Hair_Back
						{
							OFFSET 0.000000 3.231903 -17.524799
							CHANNELS 3 Xrotation Yrotation Zrotation
							End Site
							{
								OFFSET 0.000000 19.849884 0.000000
							}
						}
						JOINT newVegas:Hair_Front
						{
							OFFSET 0.000000 31.260406 4.573800
							CHANNELS 3 Xrotation Yrotation Zrotation
							JOINT newVegas:Hair_Front1
							{
								OFFSET 0.000000 2.284103 11.993300
								CHANNELS 3 Xrotation Yrotation Zrotation
								JOINT newVegas:Hair_Front2
								{
									OFFSET 0.000000 2.284103 11.993300
									CHANNELS 3 Xrotation Yrotation Zrotation
									End Site
									{
										OFFSET 0.000000 12.208862 0.000000
									}
								}
							}
						}
						JOINT newVegas:Jowel
						{
							OFFSET 0.000000 -7.458206 6.864100
							CHANNELS 3 Xrotation Yrotation Zrotation
							End Site
							{
								OFFSET 0.000000 19.849884 0.000000
							}
						}
					}
				}
				JOINT newVegas:LeftShoulder
				{
					OFFSET 15.263000 10.923401 -0.547700
					CHANNELS 3 Xrotation Yrotation Zrotation
					JOINT newVegas:LeftArm
					{
						OFFSET 25.438599 -2.830597 -13.032500
						CHANNELS 3 Xrotation Yrotation Zrotation
						JOINT newVegas:LeftForeArm
						{
							OFFSET 29.960503 0.000000 0.000000
							CHANNELS 3 Xrotation Yrotation Zrotation
							JOINT newVegas:LeftHand
							{
								OFFSET 27.849251 0.000000 0.000000
								CHANNELS 3 Xrotation Yrotation Zrotation
								JOINT newVegas:LeftHandThumb1
								{
									OFFSET 4.487587 -3.305161 6.305391
									CHANNELS 3 Xrotation Yrotation Zrotation
									JOINT newVegas:LeftHandThumb2
									{
										OFFSET 5.480453 -3.164139 3.164143
										CHANNELS 3 Xrotation Yrotation Zrotation
										JOINT newVegas:LeftHandThumb3
										{
											OFFSET 5.159721 -2.978973 2.978967
											CHANNELS 3 Xrotation Yrotation Zrotation
											End Site
											{
												OFFSET 2.494507 5.926697 1.738678
											}
										}
									}
								}
								JOINT newVegas:LeftHandIndex1
								{
									OFFSET 18.578728 -0.527832 5.208049
									CHANNELS 3 Xrotation Yrotation Zrotation
									JOINT newVegas:LeftHandIndex2
									{
										OFFSET 3.192009 0.000000 0.000000
										CHANNELS 3 Xrotation Yrotation Zrotation
										JOINT newVegas:LeftHandIndex3
										{
											OFFSET 3.835129 0.000000 0.000000
											CHANNELS 3 Xrotation Yrotation Zrotation
											End Site
											{
												OFFSET -0.034599 3.816971 0.371180
											}
										}
									}
								}
								JOINT newVegas:LeftHandMiddle1
								{
									OFFSET 18.476105 0.000000 0.000000
									CHANNELS 3 Xrotation Yrotation Zrotation
									JOINT newVegas:LeftHandMiddle2
									{
										OFFSET 3.324875 0.000000 0.000000
										CHANNELS 3 Xrotation Yrotation Zrotation
										JOINT newVegas:LeftHandMiddle3
										{
											OFFSET 4.596550 0.000000 0.000000
											CHANNELS 3 Xrotation Yrotation Zrotation
											End Site
											{
												OFFSET 0.057701 4.578827 0.399218
											}
										}
									}
								}
								JOINT newVegas:LeftHandRing1
								{
									OFFSET 17.732719 0.121887 -4.201567
									CHANNELS 3 Xrotation Yrotation Zrotation
									JOINT newVegas:LeftHandRing2
									{
										OFFSET 2.733170 0.000000 0.000000
										CHANNELS 3 Xrotation Yrotation Zrotation
										JOINT newVegas:LeftHandRing3
										{
											OFFSET 3.178268 0.000000 0.000000
											CHANNELS 3 Xrotation Yrotation Zrotation
											End Site
											{
												OFFSET 0.119102 3.170624 0.185394
											}
										}
									}
								}
								JOINT newVegas:LeftHandPinky1
								{
									OFFSET 15.989624 -0.606689 -7.535461
									CHANNELS 3 Xrotation Yrotation Zrotation
									JOINT newVegas:LeftHandPinky2
									{
										OFFSET 2.538986 0.000000 0.000000
										CHANNELS 3 Xrotation Yrotation Zrotation
										JOINT newVegas:LeftHandPinky3
										{
											OFFSET 2.593102 0.000000 0.000000
											CHANNELS 3 Xrotation Yrotation Zrotation
											End Site
											{
												OFFSET -0.150902 2.584198 0.152708
											}
										}
									}
								}
							}
							JOINT newVegas:Left_Sleeve
							{
								OFFSET 0.267448 -0.649796 0.577675
								CHANNELS 3 Xrotation Yrotation Zrotation
								End Site
								{
									OFFSET 0.000000 15.991241 0.000000
								}
							}
							JOINT newVegas:Left_CapeC
							{
								OFFSET 15.715958 -8.608795 -6.935905
								CHANNELS 3 Xrotation Yrotation Zrotation
								JOINT newVegas:Left_CapeC1
								{
									OFFSET 0.000000 -8.688499 0.000000
									CHANNELS 3 Xrotation Yrotation Zrotation
									End Site
									{
										OFFSET 0.000000 8.688499 0.000000
									}
								}
							}
						}
						JOINT newVegas:Left_CapeB
						{
							OFFSET 26.118385 -8.608795 -7.079235
							CHANNELS 3 Xrotation Yrotation Zrotation
							JOINT newVegas:Left_CapeB1
							{
								OFFSET 0.000000 -8.688499 0.000000
								CHANNELS 3 Xrotation Yrotation Zrotation
								End Site
								{
									OFFSET 0.000000 8.688499 0.000000
								}
							}
						}
						JOINT newVegas:Left_CapeA
						{
							OFFSET 5.115639 -8.608795 -10.395809
							CHANNELS 3 Xrotation Yrotation Zrotation
							JOINT newVegas:Left_CapeA1
							{
								OFFSET 0.000000 -8.688499 0.000000
								CHANNELS 3 Xrotation Yrotation Zrotation
								End Site
								{
									OFFSET 0.000000 8.688499 0.000000
								}
							}
						}
					}
				}
				JOINT newVegas:RightShoulder
				{
					OFFSET -15.263000 10.923401 -0.547700
					CHANNELS 3 Xrotation Yrotation Zrotation
					JOINT newVegas:RightArm
					{
						OFFSET -25.438599 -2.830597 -13.032500
						CHANNELS 3 Xrotation Yrotation Zrotation
						JOINT newVegas:RightForeArm
						{
							OFFSET -29.960503 0.000000 0.000000
							CHANNELS 3 Xrotation Yrotation Zrotation
							JOINT newVegas:RightHand
							{
								OFFSET -27.849251 0.000000 0.000000
								CHANNELS 3 Xrotation Yrotation Zrotation
								JOINT newVegas:RightHandThumb1
								{
									OFFSET -4.487587 -3.305161 6.305391
									CHANNELS 3 Xrotation Yrotation Zrotation
									JOINT newVegas:RightHandThumb2
									{
										OFFSET -5.480453 -3.164139 3.164143
										CHANNELS 3 Xrotation Yrotation Zrotation
										JOINT newVegas:RightHandThumb3
										{
											OFFSET -5.159721 -2.978973 2.978967
											CHANNELS 3 Xrotation Yrotation Zrotation
											End Site
											{
												OFFSET -2.494507 5.926697 1.738678
											}
										}
									}
								}
								JOINT newVegas:RightHandIndex1
								{
									OFFSET -18.578728 -0.527832 5.208049
									CHANNELS 3 Xrotation Yrotation Zrotation
									JOINT newVegas:RightHandIndex2
									{
										OFFSET -3.192009 0.000000 0.000000
										CHANNELS 3 Xrotation Yrotation Zrotation
										JOINT newVegas:RightHandIndex3
										{
											OFFSET -3.835129 0.000000 0.000000
											CHANNELS 3 Xrotation Yrotation Zrotation
											End Site
											{
												OFFSET 0.034599 3.816971 0.371180
											}
										}
									}
								}
								JOINT newVegas:RightHandMiddle1
								{
									OFFSET -18.476105 0.000000 0.000000
									CHANNELS 3 Xrotation Yrotation Zrotation
									JOINT newVegas:RightHandMiddle2
									{
										OFFSET -3.324875 0.000000 0.000000
										CHANNELS 3 Xrotation Yrotation Zrotation
										JOINT newVegas:RightHandMiddle3
										{
											OFFSET -4.596550 0.000000 0.000000
											CHANNELS 3 Xrotation Yrotation Zrotation
											End Site
											{
												OFFSET -0.057701 4.578827 0.399218
											}
										}
									}
								}
								JOINT newVegas:RightHandRing1
								{
									OFFSET -17.732719 0.121887 -4.201567
									CHANNELS 3 Xrotation Yrotation Zrotation
									JOINT newVegas:RightHandRing2
									{
										OFFSET -2.733170 0.000000 0.000000
										CHANNELS 3 Xrotation Yrotation Zrotation
										JOINT newVegas:RightHandRing3
										{
											OFFSET -3.178268 0.000000 0.000000
											CHANNELS 3 Xrotation Yrotation Zrotation
											End Site
											{
												OFFSET -0.119102 3.170624 0.185394
											}
										}
									}
								}
								JOINT newVegas:RightHandPinky1
								{
									OFFSET -15.989624 -0.606689 -7.535461
									CHANNELS 3 Xrotation Yrotation Zrotation
									JOINT newVegas:RightHandPinky2
									{
										OFFSET -2.538986 0.000000 0.000000
										CHANNELS 3 Xrotation Yrotation Zrotation
										JOINT newVegas:RightHandPinky3
										{
											OFFSET -2.593102 0.000000 0.000000
											CHANNELS 3 Xrotation Yrotation Zrotation
											End Site
											{
												OFFSET 0.150902 2.584198 0.152708
											}
										}
									}
								}
							}
							JOINT newVegas:Right_CapeC
							{
								OFFSET -15.715958 -8.608795 -6.935905
								CHANNELS 3 Xrotation Yrotation Zrotation
								JOINT newVegas:Right_CapeC1
								{
									OFFSET 0.000000 -8.688499 0.000000
									CHANNELS 3 Xrotation Yrotation Zrotation
									End Site
									{
										OFFSET 0.000000 8.688499 0.000000
									}
								}
							}
							JOINT newVegas:Right_Sleeve
							{
								OFFSET -0.267448 -0.649994 0.577675
								CHANNELS 3 Xrotation Yrotation Zrotation
								End Site
								{
									OFFSET 0.000000 15.991302 0.000000
								}
							}
						}
						JOINT newVegas:Right_CapeA
						{
							OFFSET -5.115540 -8.608795 -10.395824
							CHANNELS 3 Xrotation Yrotation Zrotation
							JOINT newVegas:Right_CapeA1
							{
								OFFSET 0.000000 -8.688499 0.000000
								CHANNELS 3 Xrotation Yrotation Zrotation
								End Site
								{
									OFFSET 0.000000 8.688499 0.000000
								}
							}
						}
						JOINT newVegas:Right_CapeB
						{
							OFFSET -26.118187 -8.608795 -7.079266
							CHANNELS 3 Xrotation Yrotation Zrotation
							JOINT newVegas:Right_CapeB1
							{
								OFFSET 0.000000 -8.688499 0.000000
								CHANNELS 3 Xrotation Yrotation Zrotation
								End Site
								{
									OFFSET 0.000000 8.688499 0.000000
								}
							}
						}
					}
				}
				JOINT newVegas:Left_Collar
				{
					OFFSET 18.625099 8.655502 8.828100
					CHANNELS 3 Xrotation Yrotation Zrotation
					JOINT newVegas:Left_Collar1
					{
						OFFSET 14.783401 10.540405 -1.259500
						CHANNELS 3 Xrotation Yrotation Zrotation
						End Site
						{
							OFFSET 0.000000 18.199875 0.000000
						}
					}
				}
				JOINT newVegas:Collar_Back
				{
					OFFSET 0.000000 15.630707 -20.132601
					CHANNELS 3 Xrotation Yrotation Zrotation
					End Site
					{
						OFFSET 0.000000 22.523010 0.000000
					}
				}
				JOINT newVegas:Left_Peck
				{
					OFFSET 17.239599 -5.132599 25.482599
					CHANNELS 3 Xrotation Yrotation Zrotation
					End Site
					{
						OFFSET 0.000000 22.523010 0.000000
					}
				}
				JOINT newVegas:Right_Peck
				{
					OFFSET -17.239599 -5.132202 25.482599
					CHANNELS 3 Xrotation Yrotation Zrotation
					End Site
					{
						OFFSET 0.000000 22.523010 0.000000
					}
				}
				JOINT newVegas:Right_Collar
				{
					OFFSET -18.625099 8.655792 8.828100
					CHANNELS 3 Xrotation Yrotation Zrotation
					JOINT newVegas:Right_Collar1
					{
						OFFSET -14.783401 10.539993 -1.259500
						CHANNELS 3 Xrotation Yrotation Zrotation
						End Site
						{
							OFFSET 0.000000 18.199631 0.000000
						}
					}
				}
			}
		}
		JOINT newVegas:Belly
		{
			OFFSET 0.000000 -6.540398 9.014299
			CHANNELS 3 Xrotation Yrotation Zrotation
			End Site
			{
				OFFSET 0.000000 11.566666 0.000000
			}
		}
	}
	JOINT newVegas:ElvisFacialAnim_Joint
	{
		OFFSET 1.000000 -95.330101 -8.825800
		CHANNELS 3 Xrotation Yrotation Zrotation
		End Site
		{
			OFFSET 0.000000 35.315800 0.000000
		}
	}
}
MOTION
Frames: 4
Frame Time: 0.033333
-47.183075 94.126381 105.786697 -183.617628 -39.716252 -177.097243 0.000000 -0.000001 -0.000000 -24.618647 17.390386 5.363891 34.146353 -21.299383 -1.181320 17.364718 -1.777411 3.461299 0.000001 -0.000001 0.000002 -0.000000 0.000001 0.000001 -36.269609 0.181248 10.006188 36.522784 -0.440650 -0.065170 37.216960 -3.829278 -14.447243 -0.000003 -0.000000 0.000001 -0.000000 0.000000 -0.000004 2.737793 0.721970 -5.701876 -1.658681 1.205946 1.173319 -1.729050 1.076238 1.102242 -1.437281 2.778453 1.120340 -1.437282 2.778448 1.120339 -0.000000 -0.000000 -0.000000 -1.437282 2.778438 1.120339 -1.437285 2.778456 1.120342 0.000000 -0.000002 -0.000000 -0.000000 -0.000000 0.000000 0.838481 0.457372 -0.231002 -3.432081 10.492377 -66.844377 6.902732 -14.052981 -0.427102 0.249145 -2.954972 3.464934 12.470125 -0.418229 22.179868 -12.280994 15.324766 -7.516693 -0.000002 -0.000001 0.000001 2.282378 -7.282140 2.459121 -2.147907 2.437512 -5.414733 -0.000000 0.000001 -0.000002 -2.633228 -0.140147 -2.153063 0.260998 5.073886 -16.497320 0.000005 -0.000001 -0.000000 -4.967328 10.087494 1.089116 4.008892 4.042815 -26.511757 -0.000001 -0.000002 -0.000001 -4.934789 17.876267 -4.521415 10.839956 2.764240 -25.232326 0.000004 -0.000005 -0.000003 0.000001 -0.000001 -0.000002 0.000001 -0.000001 -0.000002 0.000000 -0.000001 -0.000002 0.000002 -0.000001 -0.000000 0.000002 -0.000001 0.000000 0.000002 -0.000001 -0.000000 0.000001 0.000000 -0.000000 0.308655 4.955621 8.362271 -3.480084 8.097518 69.346002 10.898223 14.465535 -1.945513 0.180587 3.366550 -3.279613 13.165725 0.457702 -20.892347 -6.076342 -25.154642 7.039559 -0.000000 0.000000 0.000003 1.888905 -0.753455 9.643210 -2.160282 -2.444599 17.108782 -0.000001 0.000001 -0.000000 -2.523282 -3.709492 15.488899 0.263382 -5.077794 29.591706 0.000002 0.000001 -0.000001 -4.966654 -10.095167 13.980590 4.005213 -4.047043 43.082279 -0.000001 -0.000001 0.000000 -6.460637 -11.305657 23.427542 10.885787 -2.856413 47.488468 0.000001 -0.000000 0.000002 -0.000001 0.000000 -0.000002 0.000000 -0.000001 0.000001 -0.000001 0.000000 -0.000001 0.000001 -0.000001 -0.000001 0.000001 -0.000001 -0.000000 0.000001 -0.000001 -0.000001 0.000001 -0.000001 0.000001 0.000000 0.000001 -0.000000 0.000000 0.000001 -0.000000 0.000000 0.000001 -0.000000 0.000000 0.000001 -0.000000 0.000000 0.000001 -0.000000 0.000000 0.000001 -0.000000 0.000000 0.000001 -0.000000 -0.000000 -0.000000 0.000000 0.000000 -0.000001 -0.000000 
-47.940529 94.295807 104.482445 -184.201896 -36.117398 -178.403476 -0.000000 0.000005 -0.000000 -23.152965 18.405598 7.366024 34.566027 -19.220405 -1.576529 14.262968 -2.346877 3.501219 -0.000003 0.000001 0.000000 -0.000000 -0.000002 -0.000000 -35.465727 -3.436062 10.108328 28.204684 -0.685797 -0.080807 39.894158 -4.160049 -14.522944 -0.000002 -0.000001 -0.000000 -0.000000 0.000000 -0.000004 3.691110 0.109112 -5.816208 -2.216905 0.776731 1.627834 -2.268347 0.661144 1.573091 -1.689546 2.235067 1.031577 -1.689541 2.235075 1.031580 -0.000000 0.000001 -0.000000 -1.689482 2.235082 1.031570 -1.689559 2.235073 1.031577 -0.000000 -0.000001 0.000000 -0.000000 0.000001 -0.000000 0.882108 0.028959 -0.418419 -4.219509 9.754278 -65.198677 5.879761 -15.006165 -0.770673 0.306285 -4.054516 3.698475 12.584252 -0.351547 21.988047 -12.921118 14.292704 -7.629192 -0.000000 -0.000002 -0.000003 2.513154 -7.949936 3.644201 -2.145868 2.436985 -4.176437 -0.000004 -0.000000 0.000001 -2.527160 -0.518072 -0.791421 0.260842 5.073008 -15.090248 -0.000003 -0.000000 0.000002 -4.967334 10.086907 2.532915 4.009032 4.041942 -25.310820 -0.000000 -0.000002 0.000001 -5.056621 18.331640 -2.778064 10.842516 2.779417 -23.991728 0.000000 -0.000003 -0.000001 -0.000000 -0.000000 -0.000000 -0.000000 -0.000000 -0.000000 -0.000001 -0.000000 -0.000000 -0.000002 0.000002 -0.000002 -0.000002 0.000002 -0.000001 -0.000002 0.000002 -0.000002 -0.000003 0.000003 -0.000002 0.311394 3.351244 8.742031 -3.871528 6.602245 68.582599 7.643012 14.734934 -1.446741 0.204780 4.684693 -3.919156 12.931984 0.549048 -21.293745 -5.672931 -25.775239 7.047981 0.000000 0.000000 -0.000000 1.904473 -1.000487 10.264342 -2.160841 -2.444526 17.854668 -0.000000 -0.000001 0.000000 -2.497448 -3.896358 16.277384 0.263579 -5.078630 30.457087 0.000004 -0.000000 -0.000001 -4.966519 -10.095188 14.717717 4.005600 -4.047764 43.322906 0.000001 -0.000003 -0.000004 -6.460594 -11.305952 24.184802 10.869789 -2.830051 47.262365 -0.000000 -0.000002 -0.000002 0.000004 0.000001 -0.000002 0.000004 0.000000 -0.000002 0.000004 0.000001 -0.000000 -0.000000 0.000002 -0.000001 -0.000000 0.000001 -0.000001 -0.000000 0.000002 -0.000001 -0.000000 0.000001 -0.000000 -0.000000 -0.000004 -0.000000 -0.000000 -0.000004 -0.000000 -0.000000 -0.000004 -0.000000 -0.000000 -0.000004 -0.000000 -0.000000 -0.000004 -0.000000 -0.000000 -0.000004 -0.000000 -0.000000 -0.000004 -0.000000 -0.000000 0.000003 -0.000000 -0.000000 0.000005 -0.000000 
-48.594013 94.482086 103.022575 -184.929612 -32.785516 -179.611599 0.000000 -0.000000 0.000000 -20.977750 16.820702 8.947824 33.507877 -16.083151 -3.352312 12.055954 -1.563207 2.416989 0.000001 -0.000001 0.000001 0.000001 -0.000005 0.000001 -34.281778 -6.485442 10.853026 20.114060 -0.565040 -0.033384 41.377119 -4.011528 -14.419311 -0.000000 0.000002 0.000000 0.000000 0.000003 -0.000000 4.679439 -0.347289 -6.169610 -2.834625 0.452337 2.148010 -2.874155 0.349716 2.108190 -2.012843 1.643233 0.873808 -2.012839 1.643233 0.873810 0.000000 0.000001 -0.000000 -2.012852 1.643236 0.873806 -2.012782 1.643246 0.873802 0.000000 -0.000000 -0.000000 0.000000 0.000001 -0.000000 0.860028 0.038124 -0.218301 -5.725008 9.110499 -64.126508 5.514588 -16.671090 -0.413109 0.252718 -2.243172 3.882844 12.637668 -0.320840 21.898039 -13.220901 13.809437 -7.685820 0.000001 -0.000001 -0.000001 2.630903 -8.261177 4.200773 -2.144448 2.436279 -3.596115 0.000001 -0.000001 -0.000002 -2.471423 -0.694556 -0.153321 0.260679 5.070299 -14.430803 0.000001 0.000001 0.000001 -4.965161 10.086317 3.209128 4.009952 4.041245 -24.747973 0.000002 0.000003 -0.000002 -5.123301 18.544612 -1.958336 10.843324 2.786604 -23.410251 0.000003 -0.000003 0.000001 0.000002 0.000000 -0.000001 0.000002 0.000000 -0.000001 0.000001 0.000001 -0.000001 0.000001 0.000000 -0.000000 0.000001 0.000000 0.000000 0.000001 0.000000 -0.000000 -0.000000 0.000001 -0.000000 0.326379 1.483789 8.801205 -4.217190 4.815891 68.433065 6.226227 15.274581 -1.582034 0.316459 5.628287 -5.009008 12.695034 0.643639 -21.701306 -5.260614 -26.405954 7.061591 0.000000 -0.000001 -0.000002 1.926791 -1.250909 10.895829 -2.161163 -2.444446 18.612791 0.000003 0.000000 -0.000001 -2.466025 -4.085140 17.079282 0.263815 -5.079465 31.336597 0.000002 -0.000002 -0.000003 -4.966396 -10.095209 15.466898 4.006037 -4.048534 43.567482 0.000002 -0.000001 0.000000 -6.460538 -11.306219 24.954458 10.853712 -2.803125 47.032567 0.000002 -0.000002 -0.000001 0.000002 0.000001 -0.000001 -0.000001 0.000000 -0.000000 0.000002 0.000000 -0.000001 -0.000000 -0.000002 -0.000000 -0.000000 -0.000002 -0.000001 -0.000000 -0.000002 -0.000000 -0.000000 -0.000002 -0.000001 0.000000 0.000000 -0.000000 0.000000 0.000000 -0.000000 0.000000 0.000000 -0.000000 0.000000 0.000000 -0.000000 0.000000 0.000000 -0.000000 0.000000 0.000000 -0.000000 0.000000 0.000000 -0.000000 -0.000000 0.000001 -0.000000 0.000000 -0.000000 0.000000 
-49.280010 94.435898 101.464462 -185.756748 -29.971437 -180.188259 0.000001 -0.000002 -0.000000 -18.274803 14.610347 8.947335 32.176786 -13.210109 -4.858150 9.711461 -0.344080 1.400736 -0.000000 0.000001 0.000001 -0.000000 0.000001 -0.000000 -34.860773 -6.534315 10.334807 12.788685 -1.424178 0.099786 44.560994 -3.206375 -11.069310 0.000001 0.000001 0.000000 0.000002 -0.000000 0.000001 5.543655 -0.742668 -6.991525 -3.511550 0.256023 2.577362 -3.545385 0.148761 2.546373 -2.252742 1.044838 0.675782 -2.252737 1.044863 0.675784 0.000000 -0.000002 -0.000000 -2.252672 1.044840 0.675782 -2.252750 1.044858 0.675783 -0.000000 -0.000003 -0.000001 0.000000 -0.000002 0.000000 0.897484 -0.560747 -0.225191 -7.449891 7.903455 -62.694388 4.928194 -17.510862 -0.403078 0.302073 -2.385070 4.530132 12.664270 -0.312958 21.851192 -13.197142 13.847580 -7.681251 0.000002 0.000001 -0.000003 2.619706 -8.207796 4.140900 -2.144838 2.435903 -3.640978 -0.000001 0.000001 -0.000000 -2.473614 -0.674727 -0.209812 0.260744 5.070274 -14.478440 -0.000000 -0.000000 -0.000001 -4.965039 10.086392 3.131918 4.008932 4.041502 -24.882140 -0.000001 -0.000001 0.000001 -5.120477 18.479953 -2.072620 10.843891 2.789963 -23.637978 0.000002 -0.000005 0.000002 -0.000001 0.000001 -0.000001 -0.000001 0.000001 -0.000001 -0.000002 0.000001 -0.000001 0.000001 -0.000002 0.000003 0.000001 -0.000001 0.000003 0.000001 -0.000002 0.000003 -0.000000 -0.000000 0.000002 0.341392 -0.203343 8.871241 -4.168485 2.910158 68.438427 5.429556 15.674745 -1.742128 0.470836 5.780781 -6.170842 12.457870 0.740319 -22.109766 -4.844439 -27.038660 7.080458 -0.000003 -0.000004 -0.000001 1.952346 -1.501782 11.529609 -2.161250 -2.444321 19.373430 -0.000000 0.000002 -0.000001 -2.429310 -4.273298 17.884420 0.264060 -5.080150 32.219071 0.000002 -0.000001 -0.000003 -4.966241 -10.095203 16.218622 4.006448 -4.049276 43.812880 -0.000001 0.000003 -0.000002 -6.460482 -11.306503 25.726696 10.837817 -2.776010 46.802020 0.000001 0.000002 -0.000001 0.000000 -0.000000 0.000001 0.000001 0.000001 -0.000000 0.000000 -0.000000 0.000001 0.000001 0.000001 0.000000 0.000001 0.000000 0.000001 0.000001 0.000001 0.000000 0.000001 -0.000000 0.000001 0.000000 -0.000002 0.000000 0.000000 -0.000002 0.000000 0.000000 -0.000002 0.000000 0.000000 -0.000002 0.000000 0.000000 -0.000002 0.000000 0.000000 -0.000002 0.000000 0.000000 -0.000002 0.000000 -0.000000 -0.000000 -0.000000 0.000001 -0.000002 -0.000000 
